{"title":"Siones.2.Unfinished.Business.2012.BRRip.XviD.Ac3.Feel-Free","uid":7485766,"size":1427241714,"categoryP":"video","categoryS":"movies","magnet":"?xt=urn:btih:2732061d60c315437ed1ed00167e68d3921f7d8c&amp;dn=Siones.2.Unfinished.Business.2012.BRRip.XviD.Ac3.Feel-Free&amp;tr=udp%3A%2F%2Ftracker.openbittorrent.com%3A80&amp;tr=udp%3A%2F%2Fopen.demonii.com%3A1337&amp;tr=udp%3A%2F%2Ftracker.coppersurfer.tk%3A6969&amp;tr=udp%3A%2F%2Fexodus.desync.com%3A6969","seeders":0,"leechers":1,"uploader":"crazy-torrent","files":2,"time":1343584106,"description":" &lt;a href=&quot; http://www.scenespeeds.com/&quot; rel=&quot;nofollow&quot; target=&quot;_NEW&quot;&gt; http://www.scenespeeds.com/&lt;/a&gt;\n\n\n\nGenre:Comedy \nLanguage:English \nIMDb:http://www.imdb.com/title/tt1869671/ \nSource:720p.2012.BluRay.x264-PFa Thanks \nEncoder:Tony \nFormat: AVI \nFormat/Info: Audio Video Interleave \nFile size: 1.33 GiB \nDuration: 1h 32mn \nOverall bit rate: 2 066 Kbps \n\nVideo \nID: 0 \nFormat: MPEG-4 Visual \nFormat profile: Advanced Simple@L5 \nFormat settings, BVOP: 1 \nFormat settings, QPel: No \nFormat settings, GMC: No warppoints \nFormat settings, Matrix: Default (H.263) \nCodec ID: XVID \nCodec ID/Hint: XviD \nDuration: 1h 32mn \nBit rate: 1 673 Kbps \nWidth: 640 pixels \nHeight: 360 pixels \nDisplay aspect ratio: 16:9 \nFrame rate: 23.976 fps \nColor space: YUV \nChroma subsampling: 4:2:0 \nBit depth: 8 bits \nScan type: Progressive \nCompression mode: Lossy \nBits/(Pixel*Frame): 0.303 \nStream size: 1.08 GiB (81%) \nWriting library: XviD 1.2.1 (UTC 2008-12-04) \n\nAudio \nID: 1 \nFormat: AC-3 \nFormat/Info: Audio Coding 3 \nMode extension: CM (complete main) \nCodec ID: 2000 \nDuration: 1h 32mn \nBit rate mode: Constant \nBit rate: 384 Kbps \nChannel(s): 6 channels \nChannel positions: Front: L C R, Side: L R, LFE \nSampling rate: 48.0 KHz \nBit depth: 16 bits \nCompression mode: Lossy \nStream size: 253 MiB (19%) \nAlignment: Aligned on interleaves \nInterleave, duration: 42 ms (1.00 video frame) \nInterleave, preload duration: 512 ms \n\nPlot: \nFive years ago our heroes the Duckrockers thought they had figured it all out - they had found themselves\n\n\n\n &lt;a href=&quot; http://www.scenespeeds.com/&quot; rel=&quot;nofollow&quot; target=&quot;_NEW&quot;&gt; http://www.scenespeeds.com/&lt;/a&gt;","torrent":{"xt":"urn:btih:2732061d60c315437ed1ed00167e68d3921f7d8c","amp;dn":"Siones.2.Unfinished.Business.2012.BRRip.XviD.Ac3.Feel-Free","amp;tr":["udp%3A%2F%2Ftracker.openbittorrent.com%3A80","udp%3A%2F%2Fopen.demonii.com%3A1337","udp%3A%2F%2Ftracker.coppersurfer.tk%3A6969","udp%3A%2F%2Fexodus.desync.com%3A6969"],"infoHash":"2732061d60c315437ed1ed00167e68d3921f7d8c","infoHashBuffer":{"type":"Buffer","data":[39,50,6,29,96,195,21,67,126,209,237,0,22,126,104,211,146,31,125,140]},"announce":[],"urlList":[]}}